<!-- Generator: Adobe Illustrator 12.0.1, SVG Export Plug-In . SVG Version: 6.00 Build 51448)  -->
<svg xmlns:rdf="http://www.w3.org/1999/02/22-rdf-syntax-ns#" style="enable-background:new 0 0 233.812 128.739;" xmlns="http://www.w3.org/2000/svg" xml:space="preserve" height="128.739" viewBox="0 0 233.812 128.739" width="233.812" version="1.1" xmlns:cc="http://creativecommons.org/ns#" xmlns:dc="http://purl.org/dc/elements/1.1/"><metadata><rdf:RDF><cc:Work rdf:about=""><dc:format>image/svg+xml</dc:format><dc:type rdf:resource="http://purl.org/dc/dcmitype/StillImage"/><dc:title/></cc:Work></rdf:RDF></metadata>
<path d="M166.3125,23.6875v26.625l-29.03125,16.78125-32.6875-18.84375-32.625,18.84375-32.625-18.84375-33.5,19.3125v38.625l33.5,19.34375,33.4375-19.34375v-37.65625l31.8125-18.40625,32.6875,18.8125,32.625-18.8125,23.09375,13.3125,0.8125-1.375-20.25-11.6875v-26.6875h-1.625v25.75l-2.03125-1.1875-2,1.15625v-25.71875h-1.59375zm-126.96875,26.4375l31.8125,18.40625v36.75l-31.8125,18.375-31.875-18.375v-36.75l31.875-18.40625z"/><path d="m11.4978,71.322079,1.615,0,0,31.160941-1.615,0z"/><path d="m65.9328,101.77053,0.8075,1.425-27.0275,15.57809-0.8075-1.425,27.0275-15.57809z"/><path d="m38.9053,56.407075,0.8075-1.3775,27.0275,15.58-0.8075,1.37655-27.0275-15.57905z"/><path d="m134.85625,72.223625-0.8094,1.425-29.82905-17.24155,0.8075-1.3775,29.83095,17.19405z"/><path d="m161.4553,12.597825c0-2.9336,0.78755-5.2307,2.3636-6.89035,1.5751-1.65965,3.61-2.489,6.10185-2.489,1.6321,0,3.10365,0.3895,4.4137,1.1685,1.31005,0.77995,2.30945,1.86675,2.9963,3.26135s1.03075,2.97635,1.03075,4.74335c0,1.79265-0.36195,3.39625-1.08585,4.80985-0.7239,1.41455-1.74895,2.4852-3.0742,3.2129-1.3262,0.7277-2.75785,1.0906-4.294,1.0906-1.6644,0-3.15115-0.40185-4.4612-1.20555-1.311-0.80465-2.30375-1.90095-2.9792-3.29175-0.6745-1.38795-1.01175-2.85855-1.01175-4.4099zm2.41965,0.03705c0,2.128,0.57285,3.80475,1.71665,5.03025,1.1438,1.22455,2.57925,1.8373,4.3054,1.8373,1.75845,0,3.2053-0.6175,4.3415-1.85535,1.1362-1.2369,1.7043-2.99155,1.7043-5.2649,0-1.43735-0.2432-2.6923-0.72865-3.76485-0.4864-1.07255-1.197-1.9038-2.1318-2.4947-0.93575-0.58995-1.9855-0.8854-3.14925-0.8854-1.65395,0-3.07705,0.56905-4.2693,1.70525s-1.78885,3.03335-1.78885,5.6924z"/><path d="m194.0878,69.169375c0-2.9336,0.78755-5.2307,2.3636-6.8894,1.5751-1.65965,3.60905-2.489,6.10185-2.489,1.6321,0,3.10365,0.3895,4.4137,1.1685,1.311,0.77995,2.30945,1.86675,2.9963,3.2604,0.6878,1.3946,1.0317,2.97635,1.0317,4.74335,0,1.79265-0.36195,3.39625-1.08585,4.80985-0.7239,1.41455-1.74895,2.4852-3.07515,3.2129s-2.7569,1.0906-4.29305,1.0906c-1.6644,0-3.15115-0.40185-4.46215-1.20555-1.31005-0.80465-2.3028-1.90095-2.97825-3.29175-0.6745-1.38795-1.0127-2.85855-1.0127-4.4099zm2.41965,0.03705c0,2.128,0.5719,3.80475,1.71665,5.03025,1.1438,1.22455,2.57925,1.8373,4.3054,1.8373,1.75845,0,3.2053-0.6175,4.3415-1.85535,1.13525-1.2369,1.7043-2.99155,1.7043-5.2649,0-1.43735-0.2432-2.6923-0.7296-3.76485-0.48545-1.07255-1.19605-1.9038-2.13085-2.49375-0.93575-0.58995-1.9855-0.8854-3.14925-0.8854-1.65395,0-3.07705,0.56905-4.2693,1.7043-1.1932,1.13715-1.78885,3.0343-1.78885,5.6924z"/><path d="m214.1024,77.781125,0-17.67855,2.34555,0,0,7.258,9.1732,0,0-7.258,2.34555,0,0,17.67855-2.34555,0,0-8.3277-9.1732,0,0,8.3277-2.34555,0z"/>
</svg>
